<svg width="639" height="639" viewBox="0 0 639 639" fill="none" xmlns="http://www.w3.org/2000/svg">
<g clip-path="url(#clip0_371_29)">
<rect width="639" height="639" fill="white"/>
<path d="M639 0H0V639H639V0Z" fill="white"/>
<path d="M192.157 312.181H173.989C174.12 310.633 174.033 309.24 173.729 307.998C173.423 306.756 172.901 305.689 172.159 304.795C171.419 303.88 170.449 303.184 169.252 302.705C168.053 302.225 166.627 301.985 164.971 301.985C161.791 301.985 158.947 302.781 156.442 304.371C153.938 305.939 151.857 308.194 150.201 311.136C148.546 314.054 147.37 317.54 146.672 321.591C146.063 325.513 146.041 328.769 146.607 331.361C147.195 333.954 148.339 335.893 150.038 337.177C151.759 338.463 153.991 339.106 156.736 339.106C158.567 339.106 160.243 338.887 161.769 338.453C163.316 338.017 164.688 337.396 165.886 336.589C167.106 335.761 168.14 334.781 168.99 333.649C169.861 332.495 170.526 331.219 170.984 329.826H189.282C188.585 332.657 187.343 335.554 185.557 338.518C183.77 341.459 181.462 344.171 178.63 346.654C175.798 349.115 172.465 351.109 168.631 352.633C164.797 354.158 160.484 354.921 155.691 354.921C149.417 354.921 144.004 353.549 139.45 350.803C134.92 348.059 131.63 344.05 129.583 338.779C127.557 333.507 127.154 327.081 128.374 319.5C129.593 312.181 132.001 306.048 135.594 301.103C139.189 296.159 143.558 292.433 148.698 289.928C153.839 287.424 159.306 286.17 165.102 286.17C169.481 286.17 173.402 286.747 176.865 287.903C180.35 289.057 183.28 290.745 185.655 292.967C188.051 295.167 189.816 297.879 190.948 301.103C192.081 304.328 192.485 308.02 192.157 312.181ZM217.849 354.921C212.404 354.921 207.915 353.842 204.387 351.686C200.88 349.507 198.417 346.48 197.001 342.602C195.585 338.703 195.303 334.183 196.152 329.042C197.001 323.9 198.778 319.391 201.478 315.514C204.18 311.615 207.655 308.586 211.903 306.43C216.149 304.251 221.008 303.162 226.476 303.162C231.899 303.162 236.366 304.251 239.873 306.43C243.401 308.586 245.874 311.615 247.29 315.514C248.728 319.391 249.022 323.9 248.172 329.042C247.322 334.183 245.537 338.703 242.814 342.602C240.09 346.48 236.605 349.507 232.357 351.686C228.131 353.842 223.295 354.921 217.849 354.921ZM220.072 341.589C221.64 341.589 223.066 341.078 224.352 340.053C225.659 339.029 226.77 337.57 227.685 335.674C228.621 333.779 229.308 331.525 229.743 328.911C230.179 326.275 230.244 324.02 229.939 322.147C229.635 320.252 229.002 318.792 228.044 317.768C227.085 316.745 225.823 316.232 224.253 316.232C222.685 316.232 221.247 316.745 219.94 317.768C218.634 318.792 217.522 320.252 216.607 322.147C215.692 324.02 215.017 326.275 214.581 328.911C214.145 331.525 214.07 333.779 214.353 335.674C214.658 337.57 215.289 339.029 216.248 340.053C217.228 341.078 218.502 341.589 220.072 341.589ZM274.182 325.774L269.478 354.006H251.44L259.805 303.815H276.927L275.359 313.357H275.882C277.472 310.154 279.792 307.661 282.842 305.874C285.913 304.066 289.301 303.162 293.004 303.162C296.555 303.162 299.507 303.969 301.86 305.58C304.213 307.192 305.879 309.414 306.859 312.246C307.839 315.078 308.013 318.324 307.382 321.983L302.023 354.006H283.986L288.691 325.774C289.105 323.291 288.8 321.34 287.776 319.924C286.774 318.508 285.118 317.8 282.809 317.8C281.349 317.8 280.01 318.127 278.791 318.782C277.592 319.413 276.59 320.328 275.783 321.526C275 322.703 274.466 324.119 274.182 325.774ZM367.946 303.815L342.721 354.006H321.808L313.312 303.815H331.612L334.225 337.015H334.748L348.341 303.815H367.946ZM387.104 354.921C381.745 354.921 377.3 353.897 373.772 351.849C370.243 349.78 367.758 346.817 366.321 342.962C364.883 339.084 364.622 334.444 365.537 329.042C366.409 323.857 368.206 319.326 370.928 315.449C373.673 311.57 377.126 308.554 381.287 306.397C385.469 304.241 390.153 303.162 395.338 303.162C399.128 303.162 402.45 303.75 405.304 304.927C408.179 306.103 410.522 307.813 412.329 310.057C414.137 312.3 415.358 315.013 415.989 318.193C416.642 321.352 416.642 324.924 415.989 328.911L415.336 333.093H370.504L372.072 323.16H400.304C400.523 321.722 400.381 320.459 399.88 319.37C399.4 318.258 398.627 317.398 397.56 316.788C396.513 316.157 395.251 315.84 393.77 315.84C392.288 315.84 390.894 316.157 389.587 316.788C388.301 317.419 387.201 318.301 386.287 319.435C385.394 320.567 384.794 321.896 384.489 323.421L382.528 333.878C382.268 335.489 382.365 336.927 382.822 338.191C383.28 339.455 384.075 340.445 385.208 341.165C386.341 341.883 387.8 342.242 389.587 342.242C390.806 342.242 391.961 342.08 393.05 341.753C394.161 341.404 395.142 340.903 395.991 340.25C396.862 339.574 397.56 338.757 398.083 337.798H414.551C413.375 341.284 411.512 344.312 408.964 346.882C406.437 349.431 403.321 351.414 399.618 352.83C395.937 354.223 391.764 354.921 387.104 354.921ZM419.167 354.006L427.532 303.815H445.047L443.477 313.357H444C445.503 309.828 447.388 307.247 449.654 305.613C451.919 303.979 454.392 303.162 457.072 303.162C457.855 303.162 458.606 303.227 459.326 303.358C460.066 303.468 460.796 303.62 461.515 303.815L458.9 319.238C458.052 318.912 456.995 318.683 455.731 318.553C454.468 318.4 453.346 318.324 452.366 318.324C450.623 318.324 448.989 318.727 447.465 319.533C445.961 320.317 444.676 321.429 443.609 322.866C442.562 324.281 441.866 325.948 441.517 327.865L437.204 354.006H419.167ZM484.51 303.815L489.216 319.37L499.542 303.815H517.448L499.803 328.911L509.737 354.006H491.961L486.08 338.06L475.231 354.006H457.193L475.623 328.911L466.474 303.815H484.51Z" fill="#1E3A8A"/>
</g>
<defs>
<clipPath id="clip0_371_29">
<rect width="639" height="639" fill="white"/>
</clipPath>
</defs>
</svg>
