<svg width="639" height="639" viewBox="0 0 639 639" fill="none" xmlns="http://www.w3.org/2000/svg">
<g clip-path="url(#clip0_371_25)">
<rect width="639" height="639" fill="white"/>
<path d="M639 0H0V639H639V0Z" fill="white"/>
<path fill-rule="evenodd" clip-rule="evenodd" d="M238.337 183.031C236.732 183.217 236.159 183.678 236.343 184.639C236.536 185.65 237.829 186.124 241.514 186.532C249.944 187.467 257.187 192.032 262.032 199.464C265.58 204.908 274.243 224.051 273.496 224.799C273.181 225.116 255.727 225.374 234.71 225.374H196.496V227.786V230.197L202.911 230.68C210.112 231.222 215 233.138 223.877 238.891C230.081 242.913 240.986 252.873 244.598 257.814C248.554 263.228 249.006 262.482 249.018 250.493C249.026 244.636 249.345 239.346 249.729 238.738C250.262 237.895 253.856 237.535 264.943 237.217L279.459 236.799L280.985 240.33C281.823 242.273 285.652 251.277 289.491 260.34C293.332 269.402 297.121 278.264 297.913 280.033C300.726 286.307 311.826 311.574 317.538 324.707L323.334 338.032L320.843 339.709C316.184 342.843 309.549 345.642 302.145 347.594C296.013 349.211 292.739 349.553 282.901 349.607C276.258 349.643 270.054 349.294 268.792 348.814C265.944 347.727 265.842 347.734 265.842 349.012C265.842 349.594 268.638 351.391 272.054 353.007C292.789 362.804 306.532 376.468 327.61 408.239C340.209 427.229 350.327 438.583 360.953 445.656C365.404 448.619 378.519 454.056 381.213 454.056C382.09 454.056 384.9 454.604 387.456 455.273C393.514 456.861 412.2 457.743 415.138 456.581C418.367 455.304 417.222 453.252 413.282 453.252C409.824 453.252 401.104 450.199 396.001 447.2C392.925 445.392 377.823 430.905 373.337 425.458C372.272 424.167 368.666 419.854 365.32 415.875C352.802 400.989 352.888 401.165 354.893 394.575C357.005 387.63 364.643 368.863 370.267 356.796C372.018 353.037 374.157 348.336 375.019 346.346C375.881 344.357 378.587 338.389 381.034 333.084C387.541 318.976 388.144 317.634 391.174 310.577C392.691 307.041 395.735 300.168 397.936 295.305C404.891 279.937 413.048 261.843 416.958 253.105C419.036 248.464 421.386 243.219 422.181 241.45C422.975 239.683 427.522 229.554 432.286 218.944C441.973 197.365 444.197 194.178 452.743 189.611C456.279 187.72 459.075 186.877 462.794 186.578C467.471 186.202 467.923 186.008 467.705 184.468C467.464 182.777 467.377 182.773 436.999 182.773H406.536L406.279 184.582C406.054 186.175 406.373 186.39 408.964 186.39C413.168 186.39 417.184 188.571 419.534 192.132C421.238 194.714 421.509 195.897 421.208 199.442C421.012 201.768 420.261 204.938 419.541 206.485C418.82 208.033 414.578 218.16 410.115 228.991C405.651 239.823 400.097 253.206 397.771 258.732C395.445 264.258 389.476 278.727 384.507 290.884C379.538 303.042 374.84 314.435 374.067 316.204C373.294 317.972 371.67 321.951 370.462 325.045C369.251 328.141 367.69 331.918 366.99 333.442C366.293 334.964 363.346 341.958 360.442 348.985C357.54 356.01 354.817 361.763 354.394 361.77C353.971 361.776 352.444 358.83 351.001 355.224L348.379 348.667L354.798 342.611C363.692 334.221 369.083 325.22 372.808 312.541C374.757 305.906 375.179 301.985 375.14 290.884C375.08 273.672 370.495 261.77 359.701 250.809C353.355 244.364 352.434 243.579 347.202 240.173C342.996 237.435 332.304 232.683 326.769 231.092C317.978 228.565 308.371 226.58 304.935 226.58C303.002 226.58 300.836 226.128 300.122 225.575C299.406 225.023 296.812 219.52 294.357 213.347C289.317 200.678 288.721 196.116 291.508 191.594C293.425 188.483 297.43 186.39 301.462 186.39C304.273 186.39 306.105 184.693 304.753 183.341C304.204 182.792 242.903 182.506 238.337 183.031ZM219.344 239.518C219.344 240.002 219.857 241.359 220.482 242.532C223.536 248.259 224.446 252.116 224.637 260.141C224.986 274.913 221.53 283.813 205.147 310.341C200.586 317.726 195.979 324.813 194.908 326.087C193.001 328.359 179.261 350.091 179.261 350.837C179.261 351.044 178.004 353.763 176.468 356.88C172.541 364.845 171.243 369.816 171.252 376.836C171.262 385.125 173.367 389.472 181.066 397.101C188.511 404.481 202.839 413.002 204.683 411.149C205.031 410.799 204.233 409.617 202.911 408.522C195.051 402.01 191.839 397.924 189.329 391.246C188.237 388.336 187.989 385.667 188.205 379.108C188.472 370.947 188.591 370.478 192.247 363.098C196.528 354.456 200.525 348.049 211.45 332.308C225.562 311.974 232.104 300.428 235.934 289.1C237.884 283.33 238.183 281.212 238.183 273.201C238.183 266.045 237.838 263.048 236.655 259.938C234.691 254.781 230.216 248.202 225.034 242.857C221.038 238.736 219.344 237.741 219.344 239.518ZM305.648 239.988C305.184 240.452 307.045 245.407 314.348 263.153C317.258 270.227 321.921 281.8 324.707 288.874C336.09 317.766 337.621 321.409 338.294 321.188C338.681 321.062 340.422 317.417 342.161 313.088C350.393 292.607 347.184 268.105 334.533 254.851C330.584 250.713 321.072 244.659 315.432 242.694C307.691 239.997 306.082 239.552 305.648 239.988ZM241.792 261.345C241.792 261.455 242.553 263.535 243.483 265.966C244.529 268.701 245.178 272.264 245.186 275.308C245.198 280.241 243.676 288.206 242.447 289.638C242.086 290.059 241.791 291.022 241.791 291.78C241.791 293.378 232.195 312.26 228.969 317.008C227.768 318.775 226.201 321.365 225.489 322.759C224.775 324.155 223.733 325.798 223.171 326.413C222.61 327.027 221.573 328.599 220.868 329.905C220.162 331.212 217.683 335.354 215.358 339.112C203.538 358.216 197.749 373.731 197.713 386.394C197.689 395.223 202.307 406.276 208.802 412.938C211.521 415.727 219.445 421.617 222.122 422.84C224.001 423.699 224.155 424.173 224.155 429.12C224.155 443.731 216.657 452.158 202.309 453.672C197.778 454.15 196.898 454.486 196.898 455.734C196.898 457.161 198.491 457.234 234.376 457.449C254.989 457.573 273.046 457.541 274.503 457.378C276.679 457.138 277.109 456.779 276.908 455.369C276.692 453.845 275.996 453.599 270.637 453.162C261.309 452.401 255.605 448.634 251.298 440.391C249.409 436.777 249.407 436.751 249.676 411.296C249.823 397.284 249.712 385.09 249.43 384.196C249.082 383.098 247.958 382.415 245.955 382.082C244.327 381.813 239.09 380.53 234.315 379.231C229.542 377.933 225.272 377.097 224.824 377.374C224.313 377.691 224.101 382.881 224.252 391.416C224.384 398.861 224.244 405.201 223.943 405.506C223.148 406.3 221.27 404.537 216.392 398.408C211.058 391.707 208.773 386.592 208.66 381.107C208.594 377.83 208.947 376.51 210.234 375.218C213.312 372.133 217.096 372.39 229.766 376.546C243.835 381.161 250.542 381.755 253.084 378.61C254.882 376.388 255.109 371.11 253.679 364.893C252.799 361.071 252.855 360.686 254.578 358.848C255.914 357.422 256.28 356.336 255.916 354.879C255.548 353.407 255.839 352.575 257.011 351.752C258.592 350.64 258.974 348.256 258.451 342.755C258.247 340.588 258.488 340.324 261.058 339.894C262.617 339.635 264.33 339.149 264.867 338.818C266.317 337.919 266.045 333.216 264.439 331.397C257.58 323.631 254.978 315.488 258.626 313.203C260.634 311.947 260.689 310.482 258.749 309.974C257.853 309.74 257.059 308.549 256.744 306.967C255.925 302.855 256.133 296.118 257.109 295.138C257.656 294.591 257.819 292.748 257.534 290.355C257.277 288.215 257.033 285.921 256.989 285.257C256.601 279.283 249.04 265.341 244.609 262.431C242.797 261.24 241.791 260.853 241.792 261.345ZM328.372 358.298C327.711 358.655 325.124 359.417 322.625 359.993L318.08 361.04L322.625 364.864C329.486 370.635 338.896 381.308 341.429 386.191C342.758 388.755 346.811 392.902 346.812 391.699C346.812 391.292 343.491 383.452 339.43 374.279C332.042 357.584 331.403 356.662 328.372 358.298Z" fill="#594032"/>
</g>
<defs>
<clipPath id="clip0_371_25">
<rect width="639" height="639" fill="white"/>
</clipPath>
</defs>
</svg>
